<?xml version="1.0"?>

<svg width="374" height="481" viewBox="0 0 374 481" version="1.1" xmlns="http://www.w3.org/2000/svg" xmlns:xlink="http://www.w3.org/1999/xlink">  <title>unicycle</title> <desc>Created with Sketch.</desc> <defs></defs> <g id="Page-1" stroke="none" stroke-width="1" fill="none" fill-rule="evenodd"> <g id="unicycle" transform="translate(0.000000, -1.000000)" fill="#02A4DA" fill-rule="nonzero"> <path d="M240,201 L240.782,202.043 C248.221867,212.077299 262.141565,214.675195 272.7,208 L323.635,176.166 L362.969,160.433 C365.04628,159.602074 366.680695,157.939254 367.475711,155.847967 C368.270726,153.756681 368.153691,151.428036 367.153,149.427 L351.153,117.427 C349.17683,113.475512 344.371608,111.87407 340.42,113.85 L329.578,119.271 L325.655,115.348 C323.960284,113.653316 321.595051,112.807708 319.210043,113.043826 C316.825035,113.279944 314.671524,114.572913 313.342,116.567 L298.342,139.067 L268.827,156.776 L259.008,122.409 C256.036035,112.125048 246.636723,105.034017 235.932,105 L219.7,105 C222.5222,100.140423 224.005912,94.6196318 224,89 L224,73 L240,73 C244.418278,73 248,69.418278 248,65 C248,60.581722 244.418278,57 240,57 L224,57 L224,41 C223.98512,27.7513343 213.248666,17.0148797 200,17 L184,17 C170.751334,17.0148797 160.01488,27.7513343 160,41 L160,57 L144,57 C139.581722,57 136,60.581722 136,65 C136,69.418278 139.581722,73 144,73 L160,73 L160,89 C159.995606,94.6200893 161.481052,100.140911 164.305,105 L147.088,105 C137.093599,105.031518 128.15484,111.22604 124.616,120.573 L106.131,169.868 L63.338,177 L40,177 C38.7578819,176.999864 37.5328209,177.289181 36.422,177.845 L20.422,185.845 C17.7119754,187.20015 16.000103,189.970039 16,193 L16,217 C15.9998895,219.396822 17.0744385,221.667419 18.9279741,223.187012 C20.7815097,224.706605 23.2187265,225.315077 25.569,224.845 L64.793,217 L120,217 C127.54988,216.981853 134.655555,213.429016 139.2,207.4 L144,201 L144,251.541 C143.981947,261.96494 147.239705,272.13105 153.313,280.603 L182.578,321.573 C146.244991,325.87337 117.456442,354.269215 112.657478,390.539736 C107.858515,426.810256 128.271614,461.715986 162.236028,475.317429 C196.200443,488.918873 235.064158,477.751231 256.626725,448.19389 C278.189292,418.636548 276.957913,378.218876 253.636,350.029 L264.836,333.844 C270.067745,326.237548 270.498347,316.311959 265.945,308.281 L243.162,268.407 C241.090649,264.780438 240.000793,260.676416 240,256.5 L240,201 Z M321.243,133.557 L322.343,134.657 C324.777619,137.092569 328.497679,137.696802 331.578,136.157 L340.422,131.735 L348.956,148.803 L323.056,159.164 L313.615,145 L321.243,133.557 Z M240,122.121 C241.76098,123.161583 243.05722,124.836356 243.623,126.802 L256.308,171.202 C256.991442,173.593778 258.748572,175.531549 261.062277,176.445039 C263.375982,177.358529 265.982963,177.143783 268.116,175.864 L301.575,155.789 L308.775,166.589 L264.224,194.433 C260.705072,196.658551 256.065242,195.793298 253.585,192.449 L240,174.333 L240,122.121 Z M56,202.441 L32,207.241 L32,197.941 L41.889,193 L56,193 L56,202.441 Z M144,174.333 L126.4,197.8 C124.885662,199.810245 122.516799,200.994677 120,201 L72,201 L72,191.777 L113.315,184.891 C116.133128,184.421163 118.486797,182.484103 119.49,179.809 L139.6,126.191 C140.379225,124.130731 141.9698,122.48051 144,121.626 L144,174.333 Z M176,41 C176.00496,36.5837781 179.583778,33.0049599 184,33 L200,33 C204.416222,33.0049599 207.99504,36.5837781 208,41 L208,57 L176,57 L176,41 Z M176,73 L208,73 L208,89 C208,97.836556 200.836556,105 192,105 C183.163444,105 176,97.836556 176,89 L176,73 Z M160,121 L224,121 L224,137 L160,137 L160,121 Z M160,153 L224,153 L224,169 L160,169 L160,153 Z M160,185 L224,185 L224,201 L160,201 L160,185 Z M160,217 L224,217 L224,233 L160,233 L160,217 Z M198.51,316.35 L166.333,271.3 C162.203523,265.540075 159.988201,258.628254 160,251.541 L159.999953,249 L192,249 L192,265 C192.000003,266.392173 192.363306,267.760246 193.054,268.969 L194.667,271.793 L221.289,318.388 C221.730735,319.157431 222.040677,319.995322 222.206,320.867 C222.255,321.129 222.287,321.394 222.306,321.66 C222.306,321.686 222.314,321.711 222.316,321.737 C222.322,321.814 222.316,321.891 222.316,321.968 C222.368988,323.075795 222.191231,324.182517 221.794,325.218 L186.946,415.832 L163.129,411.069 L199.376,324.077 C200.44259,321.524825 200.1151,318.602747 198.51,316.35 Z M144.55,414.107 C144.503,414.228 144.45,414.346 144.41,414.47 L137.652,434.744 C126.914284,417.484312 125.019809,396.148313 132.548452,377.26671 C140.077095,358.385108 156.132392,344.206204 175.8,339.07 L144.611,413.923 C144.59,413.983 144.574,414.046 144.55,414.107 Z M192,465 C178.056855,465.010856 164.495771,460.443652 153.4,452 L197.8,464.692 C197.837,464.703 197.875,464.706 197.913,464.716 C195.966,464.9 194,465 192,465 Z M195.813,447.484 L154.231,435.6 L157.356,426.227 L188.056,432.367 L198.266,442.577 L195.813,447.484 Z M256,401 C255.957215,431.634678 234.243666,457.957077 204.176,463.824 C205.454139,463.043241 206.48655,461.918298 207.155,460.578 L215.155,444.578 C216.694802,441.497679 216.090569,437.777619 213.655,435.343 L201.331,423.019 L229.69,349.285 C246.220955,361.327877 255.998954,380.547535 256,401 Z M252.053,316.218 C253.569872,318.894659 253.425823,322.202344 251.682,324.737 L242.075,338.618 C239.996265,336.947335 237.834513,335.382677 235.598,333.93 L236.74,330.96 C237.582286,328.768777 238.099104,326.466007 238.274,324.125 C238.549551,320.493398 237.987438,316.84702 236.631,313.467 C236.217899,312.424529 235.732726,311.412082 235.179,310.437 L208,262.875 L208,249 L224,249 L224,256.5 C224.001801,263.462285 225.819273,270.303739 229.273,276.349 L252.053,316.218 Z" id="Shape"></path> <path d="M4.84564679e-16,137 C-0.00632645525,147.292449 6.55076473,156.443054 16.2989624,159.745658 C26.04716,163.048263 36.8158914,159.767496 43.0667992,151.590657 C49.3177071,143.413817 49.6589392,132.161592 43.915,123.621 L49.701,107.082 C50.696018,104.371479 50.1532351,101.335102 48.280782,99.1371705 C46.408329,96.9392392 43.4967871,95.9208454 40.6625912,96.4724938 C37.8283952,97.0241421 35.5113769,99.0602236 34.6,101.8 L30.377,113.869 C23.1553963,111.872655 15.4157693,113.365525 9.45476359,117.904618 C3.49375787,122.44371 -0.00378141823,129.507541 4.84564679e-16,137 Z M24,129 C28.418278,129 32,132.581722 32,137 C32,141.418278 28.418278,145 24,145 C19.581722,145 16,141.418278 16,137 C16.0049599,132.583778 19.5837781,129.00496 24,129 Z" id="Shape"></path> <path d="M48,57 C48,74.673112 62.326888,89 80,89 C97.673112,89 112,74.673112 112,57 C112,55.927 111.945,54.868 111.841,53.822 L128.107,45.988 C130.691289,44.7532605 132.418329,42.2311839 132.635178,39.3752939 C132.852026,36.5194038 131.525594,33.7654763 129.157367,32.1546908 C126.789139,30.5439054 123.740481,30.3220493 121.164,31.573 L106.264,38.75 C98.2899807,27.2573466 83.772945,22.2794678 70.4243885,26.4606287 C57.075832,30.6417895 47.9927077,43.0119332 48,57 Z M96,57 C96,65.836556 88.836556,73 80,73 C71.163444,73 64,65.836556 64,57 C64,48.163444 71.163444,41 80,41 C88.8322157,41.0104696 95.9895304,48.1677843 96,57 Z" id="Shape"></path> <path d="M312,41 C302.137506,40.9975238 293.277495,47.0288503 289.663427,56.2053045 C286.049359,65.3817587 288.417056,75.8350218 295.63252,82.5585531 C302.847984,89.2820845 313.442153,90.9069785 322.341,86.655 L330.341,94.655 C333.465275,97.7792748 338.530725,97.7792748 341.655,94.655 C344.779275,91.5307252 344.779275,86.4652748 341.655,83.341 L333.655,75.341 C337.205298,67.9053628 336.69296,59.1682889 332.297938,52.1985615 C327.902916,45.228834 320.23974,41.0009884 312,41 Z M312,73 C307.581722,73 304,69.418278 304,65 C304,60.581722 307.581722,57 312,57 C316.418278,57 320,60.581722 320,65 C319.99504,69.4162219 316.416222,72.9950401 312,73 Z" id="Shape"></path> <path d="M370.878,76.685 L354.878,60.685 C351.753449,57.5604493 346.687551,57.5604494 343.563,60.6850003 C340.438449,63.8095512 340.438449,68.875449 343.563,72 L359.563,88 C361.584051,90.0212301 364.529893,90.8107056 367.290856,90.0710387 C370.051818,89.3313719 372.208445,87.1749357 372.948356,84.4140387 C373.688267,81.6531418 372.899051,78.7072301 370.878,76.686 L370.878,76.685 Z" id="Shape"></path> <path d="M107.62,26.821 C108.820458,26.8203763 110.005271,26.5486144 111.086,26.026 L131.472,16.208 C135.452868,14.2904673 137.125533,9.50886848 135.208,5.528 C133.290467,1.54713152 128.508868,-0.125532651 124.528,1.792 L104.143,11.611 C100.776478,13.2295349 98.9781262,16.9623616 99.8105608,20.6038143 C100.642996,24.245267 103.884615,26.8259582 107.62,26.821 Z" id="Shape"></path> <path d="M16,110.36 C19.4006969,110.360065 22.42977,108.210193 23.552,105 L31.023,83.642 C32.3973445,79.4969575 30.1937309,75.0156327 26.0718692,73.5732541 C21.9500075,72.1308755 17.433022,74.2604357 15.923,78.358 L8.451,99.717 C7.5945582,102.163772 7.97679242,104.873856 9.47655555,106.988306 C10.9763187,109.102755 13.4076679,110.359417 16,110.36 Z" id="Shape"></path> </g> </g>
</svg>