<svg width="24" height="24" viewBox="0 0 24 24" fill="none" xmlns="http://www.w3.org/2000/svg">
<path d="M6.99944 14C6.56292 14.0007 6.13181 14.0966 5.73618 14.281C5.34055 14.4655 4.98995 14.734 4.70883 15.068C4.42772 15.4019 4.22286 15.7932 4.10857 16.2145C3.99427 16.6358 3.97329 17.0769 4.04709 17.5072C4.12088 17.9374 4.28768 18.3463 4.53583 18.7055C4.78399 19.0646 5.10752 19.3652 5.48386 19.5864C5.86019 19.8076 6.28026 19.944 6.71474 19.986C7.14923 20.0281 7.58766 19.9749 7.99944 19.83" stroke="black" stroke-width="1.5" stroke-linecap="round" stroke-linejoin="round"/>
<path d="M4.26391 15.6051C3.66548 15.317 3.1482 14.8844 2.75876 14.3464C2.36933 13.8083 2.12 13.1818 2.03327 12.5233C1.94655 11.8648 2.02515 11.1951 2.262 10.5746C2.49885 9.95408 2.88648 9.40231 3.38991 8.96908M3.41991 8.88808C3.09196 8.39733 2.94821 7.80637 3.01413 7.21981C3.08005 6.63326 3.35138 6.08894 3.78009 5.68323C4.2088 5.27751 4.76723 5.03657 5.35652 5.00305C5.94582 4.96953 6.52797 5.1456 6.99991 5.50008M7.23791 5.56508C7.07839 5.22612 6.99708 4.85565 6.99999 4.48104C7.0029 4.10644 7.08997 3.73727 7.25475 3.40084C7.41953 3.06441 7.65781 2.76931 7.95198 2.53735C8.24615 2.3054 8.58869 2.14252 8.95428 2.06076C9.31987 1.979 9.69916 1.98044 10.0641 2.06498C10.4291 2.14953 10.7704 2.31501 11.0627 2.5492C11.3551 2.78338 11.5912 3.08029 11.7534 3.41797C11.9156 3.75564 11.9999 4.12546 11.9999 4.50008M11.9999 4.50008V20.0001M11.9999 4.50008C12 4.12546 12.0842 3.75564 12.2464 3.41797C12.4087 3.08029 12.6447 2.78338 12.9371 2.5492C13.2295 2.31501 13.5708 2.14953 13.9357 2.06498C14.3007 1.98044 14.68 1.979 15.0455 2.06076C15.4111 2.14252 15.7537 2.3054 16.0478 2.53735C16.342 2.76931 16.5803 3.06441 16.7451 3.40084C16.9099 3.73727 16.9969 4.10644 16.9998 4.48104C17.0028 4.85565 16.9214 5.22612 16.7619 5.56508M11.9999 20.0001C11.9999 20.5305 11.7892 21.0392 11.4141 21.4143C11.0391 21.7894 10.5303 22.0001 9.99991 22.0001C9.46948 22.0001 8.96077 21.7894 8.5857 21.4143C8.21063 21.0392 7.99991 20.5305 7.99991 20.0001M11.9999 20.0001C11.9999 20.5305 12.2106 21.0392 12.5857 21.4143C12.9608 21.7894 13.4695 22.0001 13.9999 22.0001M11.9999 7.00008C11.9999 7.79573 12.316 8.55879 12.8786 9.1214C13.4412 9.68401 14.2043 10.0001 14.9999 10.0001M20.6099 8.96908C21.0465 9.34414 21.3968 9.80923 21.6367 10.3324C21.8767 10.8556 22.0006 11.4245 21.9999 12.0001C21.9999 12.7031 21.8189 13.3641 21.4999 13.9381M20.5799 8.88808C20.9079 8.39733 21.0516 7.80637 20.9857 7.21981C20.9198 6.63326 20.6484 6.08894 20.2197 5.68323C19.791 5.27751 19.2326 5.03657 18.6433 5.00305C18.054 4.96953 17.4719 5.1456 16.9999 5.50008M20.4999 20.5001L21.9999 22.0001M15.9999 18.5001C15.9999 19.1631 16.2633 19.799 16.7321 20.2678C17.201 20.7367 17.8369 21.0001 18.4999 21.0001C19.163 21.0001 19.7988 20.7367 20.2677 20.2678C20.7365 19.799 20.9999 19.1631 20.9999 18.5001C20.9999 17.837 20.7365 17.2012 20.2677 16.7323C19.7988 16.2635 19.163 16.0001 18.4999 16.0001C17.8369 16.0001 17.201 16.2635 16.7321 16.7323C16.2633 17.2012 15.9999 17.837 15.9999 18.5001Z" stroke="black" stroke-width="1.5" stroke-linecap="round" stroke-linejoin="round"/>
</svg>
