<svg width="158" height="158" viewBox="0 0 158 158" fill="none" xmlns="http://www.w3.org/2000/svg">
<path d="M113.562 45.6719H24.6875C22.3959 45.6719 20.1981 46.5822 18.5777 48.2027C16.9572 49.8231 16.0469 52.0209 16.0469 54.3125V123.438C16.0469 125.729 16.9572 127.927 18.5777 129.547C20.1981 131.168 22.3959 132.078 24.6875 132.078H113.562C115.854 132.078 118.052 131.168 119.672 129.547C121.293 127.927 122.203 125.729 122.203 123.438V54.3125C122.203 52.0209 121.293 49.8231 119.672 48.2027C118.052 46.5822 115.854 45.6719 113.562 45.6719ZM114.797 123.438C114.797 123.765 114.667 124.079 114.435 124.31C114.204 124.542 113.89 124.672 113.562 124.672H24.6875C24.3601 124.672 24.0462 124.542 23.8147 124.31C23.5832 124.079 23.4531 123.765 23.4531 123.438V54.3125C23.4531 53.9851 23.5832 53.6712 23.8147 53.4397C24.0462 53.2082 24.3601 53.0781 24.6875 53.0781H113.562C113.89 53.0781 114.204 53.2082 114.435 53.4397C114.667 53.6712 114.797 53.9851 114.797 54.3125V123.438ZM141.953 34.5625V108.625C141.953 109.607 141.563 110.549 140.869 111.244C140.174 111.938 139.232 112.328 138.25 112.328C137.268 112.328 136.326 111.938 135.631 111.244C134.937 110.549 134.547 109.607 134.547 108.625V34.5625C134.547 34.2351 134.417 33.9212 134.185 33.6897C133.954 33.4582 133.64 33.3281 133.312 33.3281H39.5C38.5179 33.3281 37.576 32.938 36.8815 32.2435C36.187 31.549 35.7969 30.6071 35.7969 29.625C35.7969 28.6429 36.187 27.701 36.8815 27.0065C37.576 26.312 38.5179 25.9219 39.5 25.9219H133.312C135.604 25.9219 137.802 26.8322 139.422 28.4527C141.043 30.0731 141.953 32.2709 141.953 34.5625Z" fill="black"/>
</svg>
