<svg width="104" height="104" viewBox="0 0 104 104" fill="none" xmlns="http://www.w3.org/2000/svg">
<path d="M29.25 48.75H35.75V55.25H29.25V48.75ZM48.75 48.75H55.25V55.25H48.75V48.75ZM68.25 48.75H74.75V55.25H68.25V48.75Z" fill="black"/>
<path d="M94.25 6.5H9.75C8.02669 6.50194 6.37451 7.18738 5.15594 8.40594C3.93738 9.62451 3.25194 11.2767 3.25 13V71.5C3.25194 73.2233 3.93738 74.8755 5.15594 76.0941C6.37451 77.3126 8.02669 77.9981 9.75 78H22.75V100.75H28.9711L51.7211 78H94.25C95.9733 77.9981 97.6255 77.3126 98.8441 76.0941C100.063 74.8755 100.748 73.2233 100.75 71.5V13C100.748 11.2767 100.063 9.62451 98.8441 8.40594C97.6255 7.18738 95.9733 6.50194 94.25 6.5ZM94.25 71.5H49.0289L29.25 91.2789V71.5H9.75V13H94.25V71.5Z" fill="black"/>
</svg>
