<svg width="21" height="21" viewBox="0 0 21 21" fill="none" xmlns="http://www.w3.org/2000/svg">
<path d="M20.08 9.04H18.08V2H11.05V0H9.04V2H2V9.04H0V11.05H2V18.08H9.04V20.08H11.05V18.08H18.08V11.05H20.08V9.04ZM16.07 16.07H11.05V14.06H9.04V16.07H4V11.05H6.03V9.04H4V4H9.04V6.03H11.05V4H16.07V9.04H14.06V11.05H16.07V16.07ZM11.05 10.05C11.05 10.3152 10.9446 10.5696 10.7571 10.7571C10.5696 10.9446 10.3152 11.05 10.05 11.05C9.5 11.05 9.04 10.6 9.04 10.05C9.04 9.5 9.5 9.04 10.05 9.04C10.6 9.04 11.05 9.5 11.05 10.05Z" fill="black"/>
</svg>
