<svg width="24" height="24" viewBox="0 0 24 24" fill="none" xmlns="http://www.w3.org/2000/svg">
<path d="M11.0246 15.5001C10.6913 15.7167 10.3496 15.7334 9.99961 15.5501C9.64961 15.3667 9.47461 15.0751 9.47461 14.6751V9.32506C9.47461 8.92506 9.64961 8.63339 9.99961 8.45006C10.3496 8.26673 10.6913 8.28339 11.0246 8.50006L15.1746 11.1501C15.3246 11.2501 15.4369 11.3751 15.5116 11.5251C15.5869 11.6751 15.6246 11.8334 15.6246 12.0001C15.6246 12.1667 15.5869 12.3251 15.5116 12.4751C15.4369 12.6251 15.3246 12.7501 15.1746 12.8501L11.0246 15.5001ZM9.82461 21.7751C9.24128 21.6417 8.67894 21.4667 8.13761 21.2501C7.59561 21.0334 7.06628 20.7584 6.54961 20.4251C6.28294 20.2584 6.13728 20.0251 6.11261 19.7251C6.08728 19.4251 6.19128 19.1584 6.42461 18.9251C6.59128 18.7584 6.80361 18.6627 7.06161 18.6381C7.32028 18.6127 7.55794 18.6667 7.77461 18.8001C8.14128 19.0334 8.52061 19.2291 8.91261 19.3871C9.30394 19.5457 9.70794 19.6751 10.1246 19.7751C10.3579 19.8417 10.5539 19.9711 10.7126 20.1631C10.8706 20.3544 10.9496 20.5667 10.9496 20.8001C10.9496 21.1334 10.8373 21.3957 10.6126 21.5871C10.3873 21.7791 10.1246 21.8417 9.82461 21.7751ZM4.99961 17.5001C4.76628 17.7334 4.50394 17.8374 4.21261 17.8121C3.92061 17.7874 3.69128 17.6501 3.52461 17.4001C3.19128 16.9167 2.91228 16.4044 2.68761 15.8631C2.46228 15.3211 2.28294 14.7501 2.14961 14.1501C2.06628 13.8501 2.12028 13.5834 2.31161 13.3501C2.50361 13.1167 2.76628 13.0001 3.09961 13.0001C3.33294 13.0001 3.54961 13.0834 3.74961 13.2501C3.94961 13.4167 4.08294 13.6167 4.14961 13.8501C4.24961 14.2834 4.38294 14.6917 4.54961 15.0751C4.71628 15.4584 4.90794 15.8334 5.12461 16.2001C5.25794 16.4001 5.31194 16.6251 5.28661 16.8751C5.26194 17.1251 5.16628 17.3334 4.99961 17.5001ZM3.12461 11.0001C2.79128 11.0001 2.52461 10.8834 2.32461 10.6501C2.12461 10.4167 2.05794 10.1501 2.12461 9.85006C2.25794 9.26673 2.44128 8.69573 2.67461 8.13706C2.90794 7.57906 3.19128 7.05839 3.52461 6.57506C3.69128 6.32506 3.92061 6.19173 4.21261 6.17506C4.50394 6.15839 4.76628 6.26673 4.99961 6.50006C5.16628 6.66673 5.26194 6.87506 5.28661 7.12506C5.31194 7.37506 5.25794 7.60006 5.12461 7.80006C4.90794 8.15006 4.71628 8.52073 4.54961 8.91206C4.38294 9.30406 4.24961 9.71672 4.14961 10.1501C4.08294 10.3834 3.95394 10.5834 3.76261 10.7501C3.57061 10.9167 3.35794 11.0001 3.12461 11.0001ZM14.0496 21.7501C13.7496 21.8167 13.4913 21.7584 13.2746 21.5751C13.0579 21.3917 12.9496 21.1417 12.9496 20.8251C12.9496 20.5917 13.0289 20.3751 13.1876 20.1751C13.3456 19.9751 13.5413 19.8417 13.7746 19.7751C15.5579 19.3084 17.0246 18.3627 18.1746 16.9381C19.3246 15.5127 19.8996 13.8667 19.8996 12.0001C19.8996 10.1334 19.3246 8.47506 18.1746 7.02506C17.0246 5.57506 15.5579 4.63339 13.7746 4.20006C13.5413 4.13339 13.3456 4.00406 13.1876 3.81206C13.0289 3.62073 12.9496 3.40839 12.9496 3.17506C12.9496 2.85839 13.0623 2.60406 13.2876 2.41206C13.5123 2.22073 13.7746 2.15839 14.0746 2.22506C16.3579 2.72506 18.2329 3.88339 19.6996 5.70006C21.1663 7.51673 21.8996 9.61672 21.8996 12.0001C21.8996 14.3667 21.1623 16.4501 19.6876 18.2501C18.2123 20.0501 16.3329 21.2167 14.0496 21.7501ZM7.69961 5.22506C7.48294 5.35839 7.25394 5.40839 7.01261 5.37506C6.77061 5.34173 6.56628 5.24173 6.39961 5.07506C6.16628 4.84173 6.06228 4.57506 6.08761 4.27506C6.11228 3.97506 6.25794 3.74173 6.52461 3.57506C7.04128 3.24173 7.57461 2.96673 8.12461 2.75006C8.67461 2.53339 9.24128 2.35839 9.82461 2.22506C10.1246 2.15839 10.3873 2.22073 10.6126 2.41206C10.8373 2.60406 10.9496 2.85839 10.9496 3.17506C10.9496 3.40839 10.8663 3.62073 10.6996 3.81206C10.5329 4.00406 10.3329 4.13339 10.0996 4.20006C9.68294 4.30006 9.27461 4.43739 8.87461 4.61206C8.47461 4.78739 8.08294 4.99173 7.69961 5.22506Z" fill="black"/>
</svg>
